<svg id="per_icon" version="1.1" viewBox="0 0 160 160" xml:space="preserve" xmlns="http://www.w3.org/2000/svg"><g transform="translate(-6.237 -3.2309)"><g transform="matrix(.019838 0 0 .024079 10.002 4.3275)" stroke-width="12.106"><path d="m7875.4 3276.9a4032.6 3322.4 0 0 1-4032.6 3322.4 4032.6 3322.4 0 0 1-4032.6-3322.4 4032.6 3322.4 0 0 1 4032.6-3322.4 4032.6 3322.4 0 0 1 4032.6 3322.4z" fill="#73f777" stop-color="#000000" stroke-width="1.8013" style="paint-order:fill markers stroke"/><g><g font-family="'Bitstream Vera Sans'"><text transform="matrix(4.873 0 0 3.1181 3457.7 -973.94)" dominant-baseline="auto" fill="#123456" font-size="21.333px" stop-color="#000000" style="-inkscape-stroke:none;font-variant-alternates:normal;font-variant-caps:normal;font-variant-east-asian:normal;font-variant-ligatures:normal;font-variant-numeric:normal;font-variant-position:normal;line-height:normal;paint-order:fill markers stroke;shape-inside:url(#rect5996);text-decoration-color:#000000;text-decoration-line:none;text-decoration-style:solid;text-indent:0;text-orientation:mixed;text-transform:none;white-space:pre" xml:space="preserve"/><text transform="matrix(4.873 0 0 3.1181 3457.7 -973.94)" dominant-baseline="auto" fill="#ff9e2d" font-size="21.333px" stop-color="#000000" stroke="#000000" stroke-width="3.1055" style="-inkscape-stroke:none;font-variant-alternates:normal;font-variant-caps:normal;font-variant-east-asian:normal;font-variant-ligatures:normal;font-variant-numeric:normal;font-variant-position:normal;line-height:normal;paint-order:fill markers stroke;shape-inside:url(#rect19732);text-decoration-color:#000000;text-decoration-line:none;text-decoration-style:solid;text-indent:0;text-orientation:mixed;text-transform:none;white-space:pre" xml:space="preserve"/><text transform="scale(1.2501 .79992)" x="3650.8823" y="-1097.2936" dominant-baseline="auto" fill="#ff9e2d" font-size="83.158px" stop-color="#000000" stroke="#000000" stroke-width="12.105" style="-inkscape-stroke:none;font-variant-alternates:normal;font-variant-caps:normal;font-variant-east-asian:normal;font-variant-ligatures:normal;font-variant-numeric:normal;font-variant-position:normal;line-height:normal;paint-order:fill markers stroke;text-decoration-color:#000000;text-decoration-line:none;text-decoration-style:solid;text-indent:0;text-orientation:mixed;text-transform:none;white-space:normal" xml:space="preserve"><tspan x="3650.8823" y="-1097.2936" stroke-width="12.105"/></text></g><path d="m3842.8 95.044c709.9 0 1291.8 450.58 1291.8 1000.3 0 549.71-581.89 1000.3-1291.8 1000.3-709.9 0-1291.8-450.58-1291.8-1000.3 0-549.71 581.89-1000.3 1291.8-1000.3zm993.69 2231.4c102.47-0.049 203.14 44.028 255.88 112.06l1192.4 1538.9c53.981 69.677 55.458 162.06 3.744 232.76-51.745 70.688-154.67 116.91-259.61 116.85h-496.84c-92.14 0-183.19-35.255-238.48-92.334l-306.79-316.91 147.19 2166.5c4.3201 62.398-25.872 125.82-81.359 171.2-55.477 45.387-135.42 72.092-216.12 72.136h-596.21c-69.148-0.049-138.24-19.492-191.29-53.863-53.03-34.363-89.6-83.39-101.85-136.09l-104.33-444.36-104.34 444.36c-12.259 52.704-48.819 101.73-101.86 136.09-53.031 34.371-122.13 53.818-191.29 53.863h-596.21c-80.708-0.049-160.65-26.749-216.12-72.136-55.484-45.379-85.723-108.8-81.356-171.2l147.18-2166.5-306.79 316.91c-55.295 57.079-146.35 92.334-238.49 92.334h-496.84c-104.93 0.074-207.85-46.167-259.6-116.85-51.736-70.695-50.258-163.08 3.744-232.76l1192.4-1538.9c52.732-68.028 153.4-112.12 255.87-112.06h993.68z" color="#000000" fill="#808080" style="text-decoration-line:none;text-indent:0;text-transform:none"/></g><path d="m5066.4 2790.5c0-77.85-102.62-140.97-229.22-140.97h-1988.8c-126.59 0-229.22 63.12-229.22 140.97v192.36h2446.9v473.23c0.18-2.29 0.28-4.59 0.28-6.91v-658.68z" fill="#f00" stroke-width="2.0012"/><path d="m2848.4 3594.9h1988.8c84.68 0 158.63-29.24 198.32-72.72h-2385.4c39.69 43.48 113.63 72.72 198.31 72.72z" fill="#f00" stroke-width="12.322"/><path d="m2619.2 2966.2v482.73c0 26.68 11.26 51.69 30.91 73.21h2385.4c17.88-19.58 28.8-42.06 30.62-66.06v-489.88z" fill="#fff" stroke-width="12.322"/><g fill="#fff" stroke-width=".26179" aria-label="HELLOMy Name Is"><path d="m3350.3 2823.4v-55.59h-166.81v55.59h-41.81v-119.94h41.81v50.73h166.81v-50.73h41.82v119.94zm115.15 0v-119.94h234.02v13.28h-192.2v38.47h179.07v13.11h-179.07v41.8h201.18v13.28zm299.04 0v-119.94h41.81v106.66h155.87v13.28zm249.35 0v-119.94h41.81v106.66h155.87v13.28zm539.84-60.52c0 12.54-6.2 23.52-18.61 32.94-12.26 9.42-29.92 16.65-52.97 21.7-23.06 5.05-50.28 7.58-81.66 7.58-31.67 0-59.03-2.5-82.09-7.49-22.92-4.99-40.43-12.2-52.54-21.62-12.12-9.48-18.17-20.52-18.17-33.11 0-19.19 13.5-34.17 40.5-44.95 27-10.84 64.58-16.26 112.74-16.26 31.38 0 58.59 2.44 81.65 7.32 23.06 4.83 40.65 11.86 52.76 21.11 12.26 9.25 18.39 20.18 18.39 32.78zm-42.69 0c0-14.93-9.63-26.65-28.89-35.16-19.12-8.51-46.2-12.77-81.22-12.77-35.32 0-62.61 4.2-81.88 12.6-19.26 8.4-28.89 20.17-28.89 35.33 0 15.03 9.7 26.98 29.11 35.83 19.56 8.8 46.63 13.2 81.22 13.2 35.61 0 62.9-4.26 81.87-12.77 19.12-8.57 28.68-20.66 28.68-36.26z"/><path d="m3411.5 2924.8v-38.8c0-4.29 0.32-8.42 0.96-12.38-3.47 4.93-6.58 8.78-9.34 11.56l-38.64 39.62h-14.22l-39.17-39.62-5.94-7.02-3.5-4.54 0.32 4.58 0.42 7.8v38.8h-18.04v-58.15h26.64l39.8 40.32c1.42 1.62 2.76 3.37 4.03 5.24 1.35 1.84 2.23 3.18 2.66 4 0.56-1.1 1.73-2.76 3.5-4.99 1.84-2.26 3.08-3.67 3.71-4.25l39.06-40.32h26.01v58.15zm56.36 17.54c-5.23 0-9.62-0.15-13.16-0.46v-5.57c2.69 0.17 5.66 0.25 8.92 0.25 11.88 0 21.3-3.4 28.23-10.2l1.8-1.77-45.53-44.45h20.38l24.2 24.68c0.35 0.39 0.78 0.85 1.27 1.4 0.5 0.53 2.09 2.32 4.78 5.37s4.14 4.76 4.35 5.12l7.43-8.13 25.16-28.44h20.16l-44.15 44.66c-4.74 4.76-9.17 8.29-13.27 10.6-4.1 2.34-8.67 4.08-13.69 5.2-4.95 1.16-10.58 1.74-16.88 1.74zm263.65-17.54-80.03-49.53 0.53 4 0.54 6.9v38.63h-18.05v-58.15h23.56l80.88 49.85c-0.85-5.39-1.27-9.3-1.27-11.72v-38.13h18.26v58.15zm86.08 0.82c-11.53 0-20.2-1.18-26-3.55-5.8-2.36-8.71-5.61-8.71-9.74 0-4.62 3.9-8.17 11.68-10.65 7.85-2.47 20.49-3.79 37.89-3.96l25.79-0.16v-2.44c0-3.63-1.98-6.23-5.94-7.8s-10.19-2.35-18.68-2.35c-8.56 0-14.79 0.56-18.68 1.69s-6.23 2.93-7.01 5.41l-19.95-0.7c3.25-8.04 18.61-12.05 46.06-12.05 14.44 0 25.3 1.29 32.59 3.87 7.29 2.56 10.93 6.28 10.93 11.15v19.23c0 2.2 0.74 3.87 2.23 4.99 1.49 1.1 4.32 1.66 8.49 1.66 1.84 0 3.93-0.1 6.26-0.29v4.62c-4.81 0.44-9.73 0.66-14.75 0.66-7.08 0-12.24-0.72-15.5-2.15-3.18-1.46-4.98-3.73-5.41-6.81h-0.64c-4.88 3.41-10.57 5.84-17.08 7.27-6.44 1.4-14.3 2.1-23.57 2.1zm4.35-5.57c7.01 0 13.24-0.62 18.68-1.86 5.45-1.24 9.73-2.93 12.85-5.07 3.18-2.18 4.77-4.41 4.77-6.69v-3.67l-20.91 0.16c-8.98 0.06-15.81 0.42-20.48 1.08-4.6 0.66-8.14 1.67-10.61 3.05-2.48 1.38-3.72 3.18-3.72 5.41 0 2.42 1.66 4.29 4.99 5.61 3.4 1.32 8.21 1.98 14.43 1.98zm154.12 4.75v-28.32c0-4.32-1.52-7.3-4.56-8.95-3.05-1.65-8.53-2.48-16.46-2.48-8.13 0-14.57 1.21-19.31 3.63-4.74 2.43-7.12 5.84-7.12 10.24v25.88h-18.99v-35.13c0-5.2-0.22-8.37-0.64-9.53h18.04c0.07 0.14 0.14 0.51 0.22 1.12 0.07 0.6 0.14 1.3 0.21 2.1 0.14 0.77 0.28 2.24 0.42 4.42h0.32c4.1-3.17 8.81-5.37 14.12-6.61 5.3-1.24 11.78-1.85 19.42-1.85 8.7 0 15.57 0.67 20.59 2.02 5.1 1.35 8.63 3.49 10.62 6.44h0.31c3.97-3 8.74-5.16 14.33-6.48 5.66-1.32 12.49-1.98 20.49-1.98 11.6 0 20.02 1.22 25.26 3.67 5.31 2.45 7.96 6.46 7.96 12.05v29.76h-18.89v-28.32c0-4.32-1.52-7.3-4.57-8.95-3.04-1.65-8.52-2.48-16.45-2.48-8.35 0-14.86 1.21-19.53 3.63-4.6 2.4-6.9 5.81-6.9 10.24v25.88zm128.85-20.76c0 5.11 2.73 9.06 8.18 11.84 5.44 2.78 13.4 4.17 23.88 4.17 8.28 0 14.89-0.65 19.85-1.94 5.02-1.29 8.42-2.93 10.18-4.91l16.77 1.86c-6.86 7.04-22.46 10.56-46.8 10.56-16.99 0-29.93-1.97-38.85-5.9-8.84-3.93-13.27-9.78-13.27-17.54 0-7.37 4.43-13.03 13.27-16.96 8.92-3.94 21.62-5.9 38.1-5.9 33.76 0 50.63 7.91 50.63 23.73v0.99zm62.2-5.7c-1.06-4.7-4.14-8.13-9.23-10.28-5.1-2.17-12.42-3.26-21.97-3.26-9.27 0-16.63 1.22-22.08 3.64-5.38 2.39-8.28 5.69-8.7 9.9zm109.86 26.46v-58.15h20.27v58.15zm141.16-12.34c0 4.21-4.1 7.45-12.31 9.74-8.14 2.28-19.57 3.42-34.28 3.42-14.3 0-25.34-0.91-33.12-2.72-7.71-1.85-12.74-4.71-15.07-8.59l16.87-1.28c1.63 2.4 4.99 4.16 10.09 5.29 5.09 1.1 12.17 1.65 21.23 1.65 9.69 0 16.77-0.58 21.22-1.74 4.53-1.15 6.8-2.88 6.8-5.2 0-1.76-1.56-3.19-4.67-4.29-3.12-1.1-8.14-2.01-15.07-2.72l-13.7-1.41c-10.96-1.1-18.78-2.17-23.45-3.21-4.6-1.08-8.21-2.37-10.83-3.88-2.62-1.52-3.93-3.37-3.93-5.58 0-4.07 3.72-7.16 11.15-9.28 7.5-2.15 18.39-3.22 32.69-3.22 12.66 0 22.71 0.87 30.14 2.6 7.5 1.73 12.24 4.51 14.22 8.34l-17.19 0.82c-1.06-1.98-3.93-3.49-8.6-4.54-4.6-1.07-10.79-1.61-18.57-1.61-8.63 0-15 0.51-19.11 1.53-4.1 1.02-6.15 2.56-6.15 4.62 0 1.27 0.85 2.31 2.54 3.14 1.7 0.82 4.21 1.53 7.54 2.1 3.33 0.58 10.33 1.38 21.02 2.4 10.11 0.99 17.4 1.91 21.86 2.76 4.46 0.83 7.96 1.75 10.51 2.77 2.62 1.02 4.63 2.2 6.05 3.55 1.41 1.32 2.12 2.83 2.12 4.54z"/></g><g fill-rule="evenodd"><path d="m3828.9 941.73c64.09 32.105 119.38 78.424 159.59 136.31 40.84 58.42 60.95 122.1 62.21 184.73-60.95 24.74-130.07 38.42-202.96 38.42-84.19 0-162.74-18.42-229.97-50 19.09-74.85 22.62-122.11 62.21-178.42 38.33-55.26 89.85-98.948 148.91-131.05z" fill="#73f777" stroke="#c4e77a" stroke-width="2.7151"/><path d="m4330.5 894.37c-12.69 166.66-118.97 289.27-248.13 356.32-12.66-145.58-89.6-266.48-224.09-339.29 194-100.32 366.98-56.941 472.23-17.039z" fill="#fe8f0d" stroke="#ff9e2d" stroke-width="2.7572"/><path d="m4855.2 1695.1c28.19-380.13-182.3-672.57-483.49-793.32-1.93 202.56-168.62 345.63-261.98 371.26l-1.84 0.96c13.35 151.28-69.55 297.4-237.26 393.62 260.6 143.95 531.84 176.31 984.76 25.53z" fill="#ff0" stroke="#fcd639" stroke-width=".030419"/><path d="m3842.8 1649.7c-160.67-91.39-230.38-230.04-233.02-358.25 152.24 62.33 311.87 65.13 452.09 1.88 11.25 209.16-149.09 303.61-219.07 356.37z" fill="#35b4b7" stroke="#50bec1" stroke-width=".028499"/><path d="m2779.1 1632.9c594.31 222.95 695.73 177.36 1036.6 34.75-202-102.73-262-299.03-241-381.73l-0.04-1.85c-158.25-65.66-254.93-193.33-267.48-366.97-282.04 125.29-447.08 293.9-526.23 716.87z" fill="#00d4ff" stroke="#40abd7" stroke-width=".030419"/><path d="m3831.4 117.98c-379.13 157.62-530.75 438.47-506.73 758.57 203.93-99.84 430.63-46.601 502.99 10.469l1.87 0.902c144.92-85.63 329.02-100.17 509.28-22.744 61.61-313.03-102.88-591.72-509.43-746.3z" fill="#ff4c00" stroke="#f27248" stroke-width=".030419"/><path d="m3330.6 903.47c173.34-73.834 349.31-57.01 481.1 6.13-139.54 82.273-222.2 200.32-227.92 337.39-218.5-97.81-234.46-264.35-253.18-343.53z" fill="#272f9c" stroke="#434aa9" stroke-width=".028721"/></g><path d="m3178.9 3002.3v51.26c-16.14-5.95-31.89-10.44-47.25-13.47-15.36-3.02-29.87-4.54-43.52-4.54-18.11 0-31.5 2.06-40.17 6.17-8.66 4.11-12.99 10.49-12.99 19.14 0 6.49 2.89 11.57 8.66 15.25 5.91 3.57 16.54 6.65 31.9 9.25l32.29 5.35c32.69 5.41 55.92 13.63 69.71 24.66 13.78 11.03 20.67 26.71 20.67 47.04 0 26.72-9.65 46.62-28.94 59.7-19.17 12.98-48.51 19.47-88.02 19.47-18.64 0-37.35-1.46-56.12-4.38s-37.54-7.25-56.31-12.98v-52.72c18.77 8.22 36.88 14.44 54.34 18.65 17.59 4.11 34.53 6.17 50.8 6.17 16.54 0 29.21-2.27 38.01-6.82 8.79-4.54 13.19-11.03 13.19-19.46 0-7.57-3.02-13.41-9.06-17.52-5.9-4.11-17.78-7.79-35.64-11.03l-29.34-5.36c-29.4-5.19-50.93-13.46-64.58-24.82-13.52-11.35-20.28-26.66-20.28-45.91 0-24.12 9.45-42.66 28.35-55.64 18.91-12.98 46.08-19.47 81.52-19.47 16.15 0 32.75 1.03 49.82 3.08 17.06 1.95 34.72 4.92 52.96 8.93zm260.9 58.56v47.37c-9.58-5.41-19.23-9.41-28.94-12.01-9.59-2.59-19.56-3.89-29.93-3.89-19.69 0-35.05 4.76-46.08 14.28-10.89 9.41-16.34 22.6-16.34 39.58s5.45 30.23 16.34 39.75c11.03 9.41 26.39 14.11 46.08 14.11 11.02 0 21.46-1.35 31.31-4.06 9.97-2.7 19.16-6.7 27.56-12v47.53c-11.02 3.35-22.25 5.84-33.67 7.46-11.29 1.73-22.64 2.6-34.06 2.6-39.78 0-70.89-8.38-93.34-25.15-22.44-16.87-33.67-40.28-33.67-70.24s11.23-53.32 33.67-70.08c22.45-16.87 53.56-25.31 93.34-25.31 11.55 0 22.9 0.87 34.06 2.6 11.29 1.62 22.51 4.11 33.67 7.46zm165.8 31.47c-15.63 0-27.57 4.65-35.84 13.95-8.14 9.2-12.21 22.5-12.21 39.91s4.07 30.77 12.21 40.07c8.27 9.19 20.21 13.79 35.84 13.79 15.35 0 27.1-4.6 35.24-13.79 8.14-9.3 12.21-22.66 12.21-40.07s-4.07-30.71-12.21-39.91c-8.14-9.3-19.89-13.95-35.24-13.95zm0-41.53c37.93 0 67.53 8.44 88.8 25.31 21.4 16.87 32.09 40.23 32.09 70.08s-10.69 53.21-32.09 70.08c-21.27 16.87-50.87 25.31-88.8 25.31-38.07 0-67.87-8.44-89.4-25.31-21.4-16.87-32.09-40.23-32.09-70.08s10.69-53.21 32.09-70.08c21.53-16.87 51.33-25.31 89.4-25.31zm249.08-47.21v51.59h72.66v41.53h-72.66v77.06c0 8.43 2.03 14.17 6.1 17.19 4.07 2.93 12.15 4.39 24.22 4.39h36.23v41.53h-60.45c-27.83 0-47.58-4.76-59.27-14.28-11.55-9.63-17.32-25.9-17.32-48.83v-77.06h-35.05v-41.53h35.05v-51.59zm192.77 0v51.59h72.66v41.53h-72.66v77.06c0 8.43 2.03 14.17 6.1 17.19 4.07 2.93 12.14 4.39 24.22 4.39h36.23v41.53h-60.45c-27.83 0-47.58-4.76-59.27-14.28-11.55-9.63-17.32-25.9-17.32-48.83v-77.06h-35.05v-41.53h35.05v-51.59zm259.32-8.92h75.81v92.31h111.84v-92.31h75.81v242.21h-75.81v-102.69h-111.84v102.69h-75.81zm341.63 179.42h70.88v62.79h-70.88z" fill="#00f" stroke-width="172.93" style="paint-order:fill markers stroke;white-space:pre" aria-label="Scott H."/><path d="m2822.2 3287.7v34.17c-10.76-3.96-21.26-6.95-31.5-8.97s-19.91-3.03-29.01-3.03c-12.08 0-21 1.37-26.78 4.11s-8.66 6.99-8.66 12.76c0 4.33 1.92 7.72 5.77 10.17 3.94 2.38 11.03 4.43 21.27 6.16l21.53 3.57c21.79 3.61 37.28 9.09 46.47 16.44 9.18 7.35 13.78 17.81 13.78 31.36 0 17.81-6.43 31.08-19.3 39.8-12.77 8.65-32.33 12.98-58.67 12.98-12.43 0-24.9-0.97-37.42-2.92-12.51-1.95-25.02-4.83-37.54-8.65v-35.15c12.52 5.48 24.59 9.63 36.23 12.44 11.73 2.74 23.02 4.11 33.87 4.11 11.02 0 19.47-1.52 25.33-4.55 5.87-3.02 8.8-7.35 8.8-12.97 0-5.05-2.01-8.94-6.04-11.68-3.94-2.74-11.86-5.2-23.76-7.36l-19.56-3.57c-19.6-3.46-33.95-8.97-43.06-16.54-9.01-7.57-13.52-17.78-13.52-30.61 0-16.08 6.31-28.44 18.91-37.1 12.6-8.65 30.71-12.97 54.34-12.97 10.77 0 21.84 0.68 33.21 2.05 11.38 1.3 23.15 3.28 35.31 5.95zm35.84 35.26h47l39.51 82.19 33.6-82.19h47l-61.83 132.59c-6.21 13.48-13.48 22.89-21.79 28.23-8.23 5.4-19.12 8.11-32.69 8.11h-27.17v-25.42h14.7c7.97 0 13.74-1.04 17.33-3.13 3.68-2.1 6.52-5.84 8.53-11.25l1.31-3.36zm309.4 3.78v29.42c-10.06-3.46-19.78-6.06-29.14-7.79s-18.2-2.59-26.52-2.59c-8.92 0-15.57 0.93-19.95 2.81-4.29 1.8-6.43 4.61-6.43 8.43 0 3.1 1.62 5.48 4.86 7.14 3.33 1.66 9.23 2.89 17.72 3.68l8.27 0.97c24.07 2.53 40.26 6.67 48.57 12.44s12.47 14.82 12.47 27.14c0 12.91-5.78 22.61-17.33 29.1s-28.79 9.73-51.72 9.73c-9.71 0-19.77-0.65-30.19-1.95-10.33-1.22-20.96-3.1-31.9-5.62v-29.42c9.37 3.75 18.95 6.56 28.75 8.44 9.89 1.87 19.91 2.81 30.06 2.81 9.19 0 16.1-1.04 20.74-3.13 4.64-2.1 6.96-5.2 6.96-9.31 0-3.46-1.62-6.02-4.86-7.67-3.15-1.73-9.49-3.07-19.03-4.01l-8.27-0.86c-20.92-2.16-35.58-6.17-43.98-12.01s-12.6-14.7-12.6-26.6c0-12.83 5.34-22.35 16.01-28.55 10.68-6.2 27.04-9.3 49.1-9.3 8.66 0 17.76 0.54 27.3 1.62s19.91 2.77 31.11 5.08zm96.49-38.18v34.4h48.43v27.68h-48.43v51.37c0 5.63 1.35 9.45 4.07 11.47 2.71 1.94 8.09 2.92 16.14 2.92h24.15v27.68h-40.29c-18.56 0-31.73-3.17-39.52-9.51-7.7-6.42-11.55-17.27-11.55-32.56v-51.37h-23.36v-27.68h23.36v-34.4zm223.94 94.64v11.03h-109.87c1.14 9.08 5.12 15.9 11.94 20.44 6.83 4.54 16.37 6.81 28.62 6.81 9.89 0 20-1.19 30.32-3.57 10.42-2.45 21.09-6.13 32.03-11.03v29.85c-11.11 3.46-22.22 6.06-33.34 7.79-11.11 1.8-22.23 2.7-33.34 2.7-26.6 0-47.3-5.55-62.09-16.65-14.7-11.18-22.05-26.83-22.05-46.94 0-19.76 7.22-35.3 21.65-46.62 14.53-11.31 34.48-16.97 59.86-16.97 23.11 0 41.57 5.73 55.4 17.19 13.91 11.47 20.87 26.79 20.87 45.97zm-48.31-12.87c0-7.36-2.62-13.27-7.87-17.74-5.17-4.54-11.95-6.81-20.35-6.81-9.1 0-16.5 2.12-22.18 6.38-5.69 4.18-9.24 10.23-10.64 18.17zm220.14-27.26c5.95-7.5 13-13.19 21.14-17.09 8.22-3.96 17.24-5.94 27.04-5.94 16.89 0 29.75 4.29 38.59 12.87s13.26 21.05 13.26 37.42v73.75h-47.26v-63.16c0.09-0.93 0.13-1.91 0.13-2.92 0.09-1 0.13-2.45 0.13-4.32 0-8.58-1.53-14.78-4.59-18.6-3.06-3.9-8.01-5.84-14.83-5.84-8.93 0-15.84 3.02-20.74 9.08-4.82 6.06-7.31 14.82-7.49 26.28v59.48h-47.25v-63.16c0-13.41-1.4-22.02-4.2-25.84-2.8-3.9-7.79-5.84-14.97-5.84-9.01 0-15.97 3.06-20.87 9.19-4.9 6.06-7.35 14.74-7.35 26.06v59.59h-47.26v-121.12h47.26v17.73c5.77-6.85 12.38-12 19.82-15.46 7.53-3.46 15.8-5.19 24.81-5.19 10.15 0 19.12 2.01 26.91 6.05s13.7 9.7 17.72 16.98zm358.5 71.6h-79.03l-12.47 29.41h-50.8l72.59-161.46h60.26l72.59 161.46h-50.8zm-66.42-29.96h53.69l-26.78-64.24zm301.26-14.38v73.75h-47.26v-12-44.45c0-10.45-0.3-17.66-0.92-21.63-0.52-3.97-1.48-6.89-2.88-8.76-1.84-2.52-4.34-4.47-7.49-5.84-3.15-1.44-6.74-2.16-10.76-2.16-9.8 0-17.5 3.13-23.1 9.41-5.61 6.2-8.41 14.81-8.41 25.84v59.59h-46.99v-121.12h46.99v17.73c7.09-7.06 14.62-12.25 22.58-15.57 7.97-3.39 16.76-5.08 26.39-5.08 16.98 0 29.84 4.29 38.59 12.87 8.84 8.58 13.26 21.05 13.26 37.42zm109.48 19.25c-9.8 0-17.2 1.37-22.19 4.11-4.9 2.74-7.35 6.77-7.35 12.11 0 4.9 1.97 8.76 5.91 11.57 4.02 2.74 9.58 4.11 16.67 4.11 8.84 0 16.28-2.59 22.32-7.79 6.03-5.26 9.05-11.82 9.05-19.68v-4.43zm71.8-14.6v69.1h-47.39v-17.95c-6.3 7.36-13.39 12.73-21.26 16.12-7.88 3.31-17.46 4.97-28.75 4.97-15.23 0-27.61-3.64-37.15-10.92-9.45-7.36-14.18-16.87-14.18-28.55 0-14.21 5.91-24.63 17.73-31.26 11.9-6.63 30.54-9.95 55.92-9.95h27.69v-3.03c0-6.13-2.93-10.6-8.79-13.41-5.86-2.88-15.01-4.32-27.44-4.32-10.06 0-19.42 0.82-28.09 2.48-8.66 1.66-16.71 4.15-24.15 7.47v-29.53c10.06-2.02 20.17-3.53 30.32-4.54 10.15-1.08 20.3-1.62 30.46-1.62 26.51 0 45.63 4.32 57.36 12.97 11.81 8.58 17.72 22.57 17.72 41.97zm43.71-99.18h47v168.28h-47zm72.86 47.16h46.99l39.52 82.19 33.6-82.19h46.99l-61.82 132.59c-6.22 13.48-13.48 22.89-21.79 28.23-8.23 5.4-19.13 8.11-32.69 8.11h-27.17v-25.42h14.7c7.96 0 13.74-1.04 17.33-3.13 3.67-2.1 6.52-5.84 8.53-11.25l1.31-3.35zm309.4 3.78v29.42c-10.06-3.46-19.78-6.06-29.14-7.79-9.37-1.73-18.2-2.59-26.52-2.59-8.92 0-15.58 0.93-19.95 2.81-4.29 1.8-6.43 4.61-6.43 8.43 0 3.1 1.62 5.48 4.85 7.14 3.33 1.66 9.24 2.89 17.73 3.68l8.27 0.97c24.06 2.53 40.25 6.67 48.56 12.44 8.32 5.77 12.48 14.82 12.48 27.15 0 12.9-5.78 22.6-17.33 29.09s-28.79 9.73-51.72 9.73c-9.72 0-19.78-0.65-30.19-1.95-10.33-1.22-20.96-3.1-31.9-5.62v-29.42c9.36 3.75 18.94 6.57 28.75 8.44 9.88 1.87 19.9 2.81 30.06 2.81 9.18 0 16.1-1.04 20.74-3.13 4.63-2.1 6.95-5.2 6.95-9.31 0-3.46-1.62-6.02-4.85-7.67-3.15-1.73-9.5-3.07-19.04-4.01l-8.27-0.86c-20.91-2.16-35.57-6.17-43.97-12.01s-12.6-14.7-12.6-26.6c0-12.83 5.33-22.35 16.01-28.55s27.04-9.3 49.1-9.3c8.66 0 17.76 0.54 27.3 1.62s19.91 2.77 31.11 5.08zm96.48-38.18v34.4h48.44v27.68h-48.44v51.37c0 5.63 1.36 9.45 4.07 11.47 2.72 1.94 8.1 2.92 16.15 2.92h24.15v27.68h-40.3c-18.55 0-31.72-3.17-39.51-9.51-7.7-6.42-11.55-17.27-11.55-32.56v-51.37h-23.37v-27.68h23.37v-34.4z" fill="#00f" stroke-width="172.93" style="paint-order:fill markers stroke;white-space:pre" aria-label="System Analyst"/></g></g></svg>
