<svg class="trs_icon" version="1.1" viewBox="0 0 20.154 18.479" xmlns="http://www.w3.org/2000/svg"><g transform="translate(21.253 14.48)"><path transform="matrix(.26667 .46187 .46187 -.26667 -4.9244 -10.655)" d="m-8.1341-14.089 1.9467 3.3718" fill="none" stroke="#000" stroke-miterlimit="10" stroke-width=".99628"/><path transform="matrix(.53331 -1.1904e-5 -1.1904e-5 -.53331 -11.524 -10.655)" d="m5.2006 0c-1.541 0.28891-4.0449 1.1557-5.7784 2.1669v-4.3338c1.7335 1.0112 4.2375 1.878 5.7784 2.1669"/><path transform="matrix(.26667 .46187 .46187 -.26667 -4.9244 -10.655)" d="m3.5872-6.2132 1.9467-3.3718" fill="none" stroke="#000" stroke-miterlimit="10" stroke-width=".99628"/><path transform="matrix(-.26665 .46186 .46186 .26665 -7.8757 -5.5428)" d="m5.2006 0c-1.541 0.28891-4.0449 1.1557-5.7784 2.1669v-4.3338c1.7335 1.0112 4.2375 1.878 5.7784 2.1669"/><path transform="matrix(.26667 .46187 .46187 -.26667 -4.9244 -10.655)" d="m4.5481-20.302h-3.8956" fill="none" stroke="#000" stroke-miterlimit="10" stroke-width=".99628"/><g><path transform="matrix(-.26667 -.46187 -.46187 .26667 -14.127 -4.9395)" d="m5.2006 0c-1.541 0.28891-4.0449 1.1557-5.7784 2.1669v-4.3338c1.7335 1.0112 4.2375 1.878 5.7784 2.1669"/><g stroke-miterlimit="10" stroke-width=".3985"><path transform="matrix(.26667 .46187 .46187 -.26667 -4.9244 -10.655)" d="m6.9739 0c0 3.8516-3.1223 6.9739-6.9739 6.9739s-6.9739-3.1223-6.9739-6.9739 3.1223-6.9739 6.9739-6.9739 6.9739 3.1223 6.9739 6.9739z" fill="#ff8000" stroke="#ff8000"/><path transform="matrix(.26667 .46187 .46187 -.26667 -17.427 -10.654)" d="m6.9739 0c0 3.8516-3.1223 6.9739-6.9739 6.9739s-6.9739-3.1223-6.9739-6.9739 3.1223-6.9739 6.9739-6.9739 6.9739 3.1223 6.9739 6.9739z" fill="#008080" stroke="#008080"/><path transform="matrix(.26667 .46187 .46187 -.26667 -11.176 .1727)" d="m6.9739 0c0 3.8516-3.1223 6.9739-6.9739 6.9739s-6.9739-3.1223-6.9739-6.9739 3.1223-6.9739 6.9739-6.9739 6.9739 3.1223 6.9739 6.9739z" fill="#ec008c" stroke="#ec008c"/></g></g></g></svg>
