<svg class="tsa_icon"version="1.1" viewBox="0 0 22.195 13.027" xmlns="http://www.w3.org/2000/svg"><g transform="translate(-.5)"><path transform="matrix(1.3333 0 0 1.3333 0 9.548)" d="m0.375-1.8876 1.3242-0.16406c0.038086 0.33691 0.15234 0.59473 0.33984 0.77344 0.1875 0.18164 0.41016 0.26953 0.66797 0.26953 0.28125 0 0.51855-0.10547 0.71484-0.31641 0.19336-0.2168 0.29297-0.50977 0.29297-0.87891 0-0.34277-0.09375-0.6123-0.28125-0.80859-0.1875-0.20215-0.41602-0.30469-0.67969-0.30469-0.17285 0-0.38086 0.035156-0.62109 0.10547l0.15234-1.1133c0.36621 0.00879 0.64746-0.073242 0.84375-0.24609 0.19336-0.16992 0.29297-0.39844 0.29297-0.67969 0-0.24023-0.076172-0.43359-0.22266-0.57422-0.14062-0.14062-0.32812-0.21094-0.5625-0.21094s-0.43359 0.082031-0.59766 0.24609c-0.16406 0.1582-0.2666 0.39258-0.30469 0.70312l-1.2539-0.21094c0.084961-0.42773 0.21387-0.77344 0.38672-1.0312 0.17871-0.25781 0.4248-0.45996 0.73828-0.60938 0.31934-0.14648 0.67383-0.22266 1.0664-0.22266 0.6709 0 1.21 0.2168 1.6172 0.64453 0.33398 0.35156 0.50391 0.74707 0.50391 1.1836 0 0.62695-0.3457 1.125-1.0312 1.5 0.41309 0.087891 0.74121 0.28125 0.98437 0.58594 0.24023 0.30469 0.36328 0.67383 0.36328 1.1016 0 0.62695-0.23145 1.1602-0.69141 1.6055-0.4541 0.43945-1.0195 0.65625-1.6992 0.65625-0.65039 0-1.1836-0.18164-1.6055-0.55078-0.42187-0.375-0.66797-0.8584-0.73828-1.4531z" fill="#07b" aria-label="3"/><path transform="matrix(1.3333 0 0 1.3333 5.3213 12.855)" d="m0.36252-2.3197 1.3945-0.14062c0.084961 0.47754 0.25781 0.82617 0.51562 1.043 0.25781 0.21973 0.60352 0.32812 1.043 0.32812 0.45996 0 0.80859-0.09668 1.043-0.29297 0.24023-0.19336 0.36328-0.4248 0.36328-0.69141 0-0.16406-0.052734-0.30469-0.15234-0.42188-0.10254-0.12305-0.27539-0.22852-0.51562-0.31641-0.17285-0.052734-0.55957-0.15527-1.1602-0.30469-0.76758-0.19336-1.3066-0.43359-1.6172-0.71484-0.43945-0.38965-0.65625-0.86719-0.65625-1.4297 0-0.36621 0.099609-0.70605 0.30469-1.0195 0.20215-0.31055 0.49805-0.55078 0.89062-0.71484 0.38965-0.16992 0.8584-0.25781 1.4062-0.25781 0.89062 0 1.5615 0.19922 2.0156 0.59766 0.45117 0.39258 0.69141 0.91113 0.71484 1.5586l-1.4414 0.070312c-0.064453-0.36621-0.19629-0.62695-0.39844-0.78516-0.20508-0.16406-0.50391-0.24609-0.90234-0.24609-0.42188 0-0.75 0.087891-0.98438 0.25781-0.1582 0.11133-0.23438 0.25781-0.23438 0.44531 0 0.16406 0.070313 0.31055 0.21094 0.43359 0.1875 0.14941 0.62695 0.30469 1.3242 0.46875 0.70312 0.16406 1.2217 0.33691 1.5586 0.51562 0.33398 0.18164 0.59766 0.42188 0.78516 0.72656s0.28125 0.68555 0.28125 1.1367c0 0.40723-0.11426 0.79102-0.33984 1.1484-0.22852 0.35156-0.54785 0.61816-0.96094 0.79688-0.41602 0.16992-0.93164 0.25781-1.5469 0.25781-0.9082 0-1.6025-0.20508-2.0859-0.62109-0.47754-0.42188-0.76172-1.0312-0.85547-1.8281z" fill="#c31" aria-label="S"/><path transform="matrix(1.3333 0 0 1.3333 13.148 9.548)" d="m7.1605-8.4375e-4h-1.5703l-0.62109-1.6172h-2.8477l-0.59766 1.6172h-1.5234l2.7773-7.125h1.5234zm-2.6602-2.8242-0.98438-2.6484-0.96094 2.6484z" fill="#098" aria-label="A"/></g></svg>
