<?xml version="1.0" encoding="UTF-8" standalone="no"?>
<!-- Created with Inkscape (http://www.inkscape.org/) -->

<svg
   width="157.9411pt"
   height="94.03791pt"
   viewBox="0 0 210.58813 125.38388"
   version="1.1"
   id="svg5"
   xml:space="preserve"
   inkscape:version="1.2.2 (b0a8486541, 2022-12-01)"
   sodipodi:docname="key.svg"
   xmlns:inkscape="http://www.inkscape.org/namespaces/inkscape"
   xmlns:sodipodi="http://sodipodi.sourceforge.net/DTD/sodipodi-0.dtd"
   xmlns="http://www.w3.org/2000/svg"
   xmlns:svg="http://www.w3.org/2000/svg"><sodipodi:namedview
     id="namedview7"
     pagecolor="#ffffff"
     bordercolor="#000000"
     borderopacity="0.25"
     inkscape:showpageshadow="2"
     inkscape:pageopacity="0.0"
     inkscape:pagecheckerboard="0"
     inkscape:deskcolor="#d1d1d1"
     inkscape:document-units="pt"
     showgrid="false"
     inkscape:zoom="2.4481928"
     inkscape:cx="177.27362"
     inkscape:cy="57.593504"
     inkscape:window-width="1543"
     inkscape:window-height="916"
     inkscape:window-x="203"
     inkscape:window-y="77"
     inkscape:window-maximized="0"
     inkscape:current-layer="layer1"
     showborder="true" /><defs
     id="defs2"><rect
       x="158.07579"
       y="-27.367126"
       width="207.5"
       height="82.509842"
       id="rect4863" /><rect
       x="178.90749"
       y="4.9015746"
       width="179.31593"
       height="46.56496"
       id="rect4857" /><rect
       x="168.89764"
       y="14.291339"
       width="214.37009"
       height="38.976379"
       id="rect4125" /><rect
       x="187.08661"
       y="15.590551"
       width="205.27559"
       height="36.377953"
       id="rect4069" /></defs><g
     inkscape:label="Layer 1"
     inkscape:groupmode="layer"
     id="layer1"
     transform="translate(-65.386421,-61.449516)"><rect
       style="fill:#ffffff;fill-opacity:1;stroke-width:0.408755"
       id="rect672"
       width="210.58812"
       height="125.38387"
       x="65.386421"
       y="61.449516" /><g
       id="i2t-3"
       class="graph"
       transform="matrix(0.8302788,0,0,0.8302788,72.050499,101.17993)"><polygon
         fill="#ffffff"
         stroke="none"
         points="-4,-40 97.77,-40 97.77,4 -4,4 "
         id="polygon9-6" /><!-- process --><g
         id="ac4-7"
         class="node processes zoomnotable notenotattached"><title
           id="title11-5">process</title><path
           fill="none"
           stroke="#33bbee"
           stroke-width="2"
           d="m 81.77,-36 c 0,0 -69.77,0 -69.77,0 -6,0 -12,6 -12,12 0,0 0,12 0,12 0,6 6,12 12,12 0,0 69.77,0 69.77,0 6,0 12,-6 12,-12 0,0 0,-12 0,-12 0,-6 -6,-12 -12,-12"
           id="path13-3" /><text
           text-anchor="middle"
           x="46.880001"
           y="-22.200001"
           font-family="Arial"
           font-size="14px"
           id="text15-5">0.1</text><text
           text-anchor="middle"
           x="46.880001"
           y="-5.4000001"
           font-family="Arial"
           font-size="14px"
           id="text17-6">:: processes</text><line
           x1="0"
           y1="-19"
           x2="93.769997"
           y2="-19"
           stroke-dasharray="3, 3"
           stroke="#33bbee"
           stroke-width="2px"
           id="line19-2" /></g></g><g
       id="e4i-9"
       class="graph"
       transform="matrix(0.82964035,0,0,0.82964035,188.87222,175.45791)"><polygon
         fill="#ffffff"
         stroke="none"
         points="100.08,4 -4,4 -4,-40 100.08,-40 "
         id="polygon37-1" /><!-- transform --><g
         id="w4e-2"
         class="node transforms zoomnotable notenotattached"><title
           id="title39-7">transform</title><path
           fill="none"
           stroke="#33bbee"
           stroke-width="2"
           d="m 84.08,-36 c 0,0 -72.08,0 -72.08,0 -6,0 -12,6 -12,12 0,0 0,12 0,12 0,6 6,12 12,12 0,0 72.08,0 72.08,0 6,0 12,-6 12,-12 0,0 0,-12 0,-12 0,-6 -6,-12 -12,-12"
           id="path41-0" /><text
           text-anchor="middle"
           x="48.040001"
           y="-22.200001"
           font-family="Arial"
           font-size="14px"
           id="text43-9">0.2</text><text
           text-anchor="middle"
           x="48.040001"
           y="-5.4000001"
           font-family="Arial"
           font-size="14px"
           id="text45-3">:: transforms</text><line
           x1="0"
           y1="-19"
           x2="96.080002"
           y2="-19"
           stroke-dasharray="3, 0"
           stroke="#33bbee"
           stroke-width="2px"
           id="line47-6" /></g></g><g
       id="u9l-0"
       class="graph"
       transform="matrix(0.82918761,0,0,0.82918761,72.046134,137.60846)"><polygon
         fill="#ffffff"
         stroke="none"
         points="72.1,-40 72.1,4 -4,4 -4,-40 "
         id="polygon65-6" /><!-- agents --><g
         id="s37-2"
         class="node agents"><title
           id="title67-6">agents</title><polygon
           fill="none"
           stroke="#009988"
           stroke-width="2"
           points="0,0 68.1,0 68.1,-36 0,-36 "
           id="polygon69-1" /><text
           text-anchor="middle"
           x="34.049999"
           y="-13.8"
           font-family="Arial"
           font-size="14px"
           id="text71-8">:: agents</text></g></g><g
       id="lci-7"
       class="graph"
       transform="matrix(0.83027873,0,0,0.83027873,72.050499,174.90656)"><polygon
         fill="#ffffff"
         stroke="none"
         points="-4,4 -4,-41 117.62,-41 117.62,4 "
         id="polygon87-9" /><!-- locations --><g
         id="node1-2"
         class="node locations"><title
           id="title89-0">locations</title><polygon
           fill="none"
           stroke="#cc3311"
           stroke-width="2"
           points="0,-0.5 0,-36.5 113.62,-36.5 113.62,-0.5 "
           id="polygon91-2" /><text
           text-anchor="middle"
           x="16.15"
           y="-14.3"
           font-family="Arial"
           font-size="14px"
           id="text93-3">R1</text><polyline
           fill="none"
           stroke="#cc3311"
           stroke-width="2"
           points="32.3,-0.5 32.3,-36.5"
           id="polyline95-7" /><text
           text-anchor="middle"
           x="72.959999"
           y="-14.3"
           font-family="Arial"
           font-size="14px"
           id="text97-5">:: locations</text></g></g><g
       id="dvw-9"
       class="graph"
       transform="matrix(0.83027873,0,0,0.83027873,165.84282,101.41736)"><polygon
         fill="#ffffff"
         stroke="none"
         points="127.74,-41 127.74,4 -4,4 -4,-41 "
         id="polygon115-2" /><!-- datastore --><g
         id="hbm-2"
         class="node datastores"><title
           id="title117-8">datastore</title><polygon
           fill="none"
           stroke="#cc3311"
           stroke-width="2"
           points="123.74,-36.5 123.74,-0.5 0,-0.5 0,-36.5 "
           id="polygon119-9" /><text
           text-anchor="middle"
           x="16.15"
           y="-14.3"
           font-family="Arial"
           font-size="14px"
           id="text121-7">R2</text><polyline
           fill="none"
           stroke="#cc3311"
           stroke-width="2"
           points="32.3,-0.5 32.3,-36.5"
           stroke-dasharray="3, 3"
           id="polyline123-3" /><text
           text-anchor="middle"
           x="78.019997"
           y="-14.3"
           font-family="Arial"
           font-size="14px"
           id="text125-6">:: datastores</text></g></g><g
       id="kug-1"
       class="graph"
       transform="matrix(0.82733709,0,0,0.82733709,151.58299,138.87731)"><polygon
         fill="#ffffff"
         stroke="none"
         points="-4,-41.16 145.43,-41.16 145.43,4 -4,4 "
         id="polygon143-2" /><!-- agent --><g
         id="dy5-9"
         class="node agents"><title
           id="title145-3">agent</title><polygon
           fill="none"
           stroke="#009988"
           stroke-width="2"
           points="0,-37.16 0,-1.16 54,-1.16 54,-37.16 "
           id="polygon147-1" /><text
           text-anchor="middle"
           x="27"
           y="-14.96"
           font-family="Arial"
           font-size="14px"
           id="text149-9">agent</text></g><!-- process --><g
         id="xhk-4"
         class="node processes zoomable noteattached has_subclass"><title
           id="title152-7">process</title><path
           fill="none"
           stroke="#33bbee"
           stroke-width="2"
           d="m 129.43,-36 c 0,0 -43.31,0 -43.31,0 -6,0 -12,6 -12,12 0,0 0,12 0,12 0,6 6,12 12,12 0,0 43.31,0 43.31,0 6,0 12,-6 12,-12 0,0 0,-12 0,-12 0,-6 -6,-12 -12,-12"
           id="path154-8" /><text
           text-anchor="middle"
           x="107.78"
           y="-22.200001"
           font-family="Arial"
           font-size="14px"
           id="text156-4">0.1</text><text
           text-anchor="middle"
           x="107.78"
           y="-5.4000001"
           font-family="Arial"
           font-size="14px"
           id="text158-5">process</text><line
           x1="74.120003"
           y1="-19"
           x2="141.42999"
           y2="-19"
           stroke-dasharray="3, 3"
           stroke="#33bbee"
           stroke-width="2px"
           id="line160-0" /><circle
           cx="75.120003"
           cy="-35"
           r="3"
           stroke="#ee3377"
           fill="#ee3377"
           id="circle162-3" /><circle
           cx="140.42999"
           cy="-35"
           r="3"
           stroke="#ee7733"
           fill="#ee7733"
           id="circle164-6" /><circle
           cx="140.42999"
           cy="-1"
           r="3"
           stroke="#0077bb"
           fill="#0077bb"
           id="circle166-1" /></g><!-- agent&#45;&gt;process --><g
         id="edge1-0"
         class="edge"><title
           id="title169-6">agent-&gt;process</title><path
           fill="none"
           stroke="#bbbbbb"
           stroke-width="2"
           d="m 54.8,-18.76 c 3.62,0.05 7.38,0.11 11.16,0.16"
           id="path171-3" /><polygon
           fill="#bbbbbb"
           stroke="#bbbbbb"
           stroke-width="2"
           points="65.82,-20.85 70.73,-19.03 65.79,-19.1 65.78,-18.6 65.78,-18.1 70.71,-18.03 65.75,-16.35 70.78,-18.53 "
           id="polygon173-2" /></g></g><text
       xml:space="preserve"
       transform="translate(65.386421,56.123303)"
       id="text4067"
       style="white-space:pre;shape-inside:url(#rect4069);fill:#ffffff;fill-opacity:1" /><text
       xml:space="preserve"
       transform="translate(65.386421,56.123303)"
       id="text4855"
       style="white-space:pre;shape-inside:url(#rect4857);fill:#ffffff;fill-opacity:1" /></g></svg>
